<?xml version="1.0" encoding="utf-8"?>
<!-- Generator: Adobe Illustrator 16.0.0, SVG Export Plug-In . SVG Version: 6.00 Build 0)  -->
<!DOCTYPE svg PUBLIC "-//W3C//DTD SVG 1.1//EN" "http://www.w3.org/Graphics/SVG/1.1/DTD/svg11.dtd">
<svg version="1.1" id="Layer_1" xmlns="http://www.w3.org/2000/svg" xmlns:xlink="http://www.w3.org/1999/xlink" x="0px" y="0px"
	 width="100px" height="105.667px" viewBox="0 0 100 105.667" enable-background="new 0 0 100 105.667" xml:space="preserve">
<linearGradient id="SVGID_1_" gradientUnits="userSpaceOnUse" x1="5.291" y1="40.2358" x2="27.2378" y2="40.2358">
	<stop  offset="0" style="stop-color:#53BC22"/>
	<stop  offset="1" style="stop-color:#84C14A"/>
</linearGradient>
<polygon fill="url(#SVGID_1_)" stroke="#B8F498" stroke-width="0.5" stroke-miterlimit="10" points="5.291,27.564 27.238,40.236 
	5.291,52.907 "/>
<polygon fill="#84C14A" stroke="#B8F498" stroke-width="0.5" stroke-miterlimit="10" points="5.291,53.099 27.238,65.769 
	5.291,78.44 "/>
<linearGradient id="SVGID_2_" gradientUnits="userSpaceOnUse" x1="5.291" y1="78.603" x2="27.2378" y2="78.603">
	<stop  offset="0" style="stop-color:#53BC22"/>
	<stop  offset="1" style="stop-color:#84C14A"/>
</linearGradient>
<polygon fill="url(#SVGID_2_)" stroke="#B8F498" stroke-width="0.5" stroke-miterlimit="10" points="27.238,91.274 5.291,78.603 
	27.238,65.933 "/>
<polygon fill="#84C14A" stroke="#B8F498" stroke-width="0.5" stroke-miterlimit="10" points="27.238,65.742 5.291,53.069 
	27.238,40.398 "/>
<polygon fill="#84C14A" stroke="#B8F498" stroke-width="0.5" stroke-miterlimit="10" points="27.238,40.408 5.291,27.737 
	27.238,15.065 "/>
<linearGradient id="SVGID_3_" gradientUnits="userSpaceOnUse" x1="27.291" y1="66.103" x2="49.2378" y2="66.103">
	<stop  offset="0" style="stop-color:#53BC22"/>
	<stop  offset="1" style="stop-color:#84C14A"/>
</linearGradient>
<polygon fill="url(#SVGID_3_)" stroke="#B8F498" stroke-width="0.5" stroke-miterlimit="10" points="49.238,78.774 27.291,66.103 
	49.238,53.433 "/>
<polygon fill="#84C14A" stroke="#B8F498" stroke-width="0.5" stroke-miterlimit="10" points="49.238,104.107 27.291,91.436 
	49.238,78.765 "/>
<linearGradient id="SVGID_4_" gradientUnits="userSpaceOnUse" x1="27.291" y1="40.5698" x2="49.2378" y2="40.5698">
	<stop  offset="0" style="stop-color:#53BC22"/>
	<stop  offset="1" style="stop-color:#84C14A"/>
</linearGradient>
<polygon fill="url(#SVGID_4_)" stroke="#B8F498" stroke-width="0.5" stroke-miterlimit="10" points="49.238,53.241 27.291,40.57 
	49.238,27.898 "/>
<linearGradient id="SVGID_5_" gradientUnits="userSpaceOnUse" x1="27.291" y1="14.9028" x2="49.2378" y2="14.9028">
	<stop  offset="0" style="stop-color:#53BC22"/>
	<stop  offset="1" style="stop-color:#84C14A"/>
</linearGradient>
<polygon fill="url(#SVGID_5_)" stroke="#B8F498" stroke-width="0.5" stroke-miterlimit="10" points="49.238,27.574 27.291,14.904 
	49.238,2.232 "/>
<polygon fill="#84C14A" stroke="#B8F498" stroke-width="0.5" stroke-miterlimit="10" points="27.291,15.064 49.238,27.736 
	27.291,40.406 "/>
<polygon fill="#84C14A" stroke="#B8F498" stroke-width="0.5" stroke-miterlimit="10" points="27.291,40.598 49.238,53.269 
	27.291,65.94 "/>
<linearGradient id="SVGID_6_" gradientUnits="userSpaceOnUse" x1="27.291" y1="78.603" x2="49.2378" y2="78.603">
	<stop  offset="0" style="stop-color:#53BC22"/>
	<stop  offset="1" style="stop-color:#84C14A"/>
</linearGradient>
<polygon fill="url(#SVGID_6_)" stroke="#B8F498" stroke-width="0.5" stroke-miterlimit="10" points="27.291,65.931 49.238,78.603 
	27.291,91.274 "/>
<polygon fill="#84C14A" stroke="#B8F498" stroke-width="0.5" stroke-miterlimit="10" points="93.238,78.774 71.291,66.104 
	93.238,53.433 "/>
<polygon fill="#84C14A" stroke="#B8F498" stroke-width="0.5" stroke-miterlimit="10" points="93.238,53.241 71.291,40.571 
	93.238,27.899 "/>
<polygon fill="#84C14A" stroke="#B8F498" stroke-width="0.5" stroke-miterlimit="10" points="71.291,15.065 93.238,27.737 
	71.291,40.407 "/>
<linearGradient id="SVGID_7_" gradientUnits="userSpaceOnUse" x1="71.291" y1="53.2695" x2="93.2383" y2="53.2695">
	<stop  offset="0" style="stop-color:#53BC22"/>
	<stop  offset="1" style="stop-color:#84C14A"/>
</linearGradient>
<polygon fill="url(#SVGID_7_)" stroke="#B8F498" stroke-width="0.5" stroke-miterlimit="10" points="71.291,40.598 93.238,53.27 
	71.291,65.941 "/>
<linearGradient id="SVGID_8_" gradientUnits="userSpaceOnUse" x1="71.291" y1="78.603" x2="93.2383" y2="78.603">
	<stop  offset="0" style="stop-color:#53BC22"/>
	<stop  offset="1" style="stop-color:#84C14A"/>
</linearGradient>
<polygon fill="url(#SVGID_8_)" stroke="#B8F498" stroke-width="0.5" stroke-miterlimit="10" points="71.291,65.931 93.238,78.603 
	71.291,91.274 "/>
<polygon fill="#84C14A" stroke="#B8F498" stroke-width="0.5" stroke-miterlimit="10" points="49.291,27.565 71.238,40.237 
	49.291,52.907 "/>
<polygon fill="#84C14A" stroke="#B8F498" stroke-width="0.5" stroke-miterlimit="10" points="49.291,2.232 71.238,14.904 
	49.291,27.575 "/>
<polygon fill="#84C14A" stroke="#B8F498" stroke-width="0.5" stroke-miterlimit="10" points="49.291,53.099 71.238,65.769 
	49.291,78.44 "/>
<polygon fill="#84C14A" stroke="#B8F498" stroke-width="0.5" stroke-miterlimit="10" points="49.291,78.765 71.238,91.436 
	49.291,104.107 "/>
<linearGradient id="SVGID_9_" gradientUnits="userSpaceOnUse" x1="49.291" y1="78.603" x2="71.2383" y2="78.603">
	<stop  offset="0" style="stop-color:#53BC22"/>
	<stop  offset="1" style="stop-color:#84C14A"/>
</linearGradient>
<polygon fill="url(#SVGID_9_)" stroke="#B8F498" stroke-width="0.5" stroke-miterlimit="10" points="71.238,91.274 49.291,78.603 
	71.238,65.933 "/>
<linearGradient id="SVGID_10_" gradientUnits="userSpaceOnUse" x1="49.291" y1="53.0703" x2="71.2383" y2="53.0703">
	<stop  offset="0" style="stop-color:#53BC22"/>
	<stop  offset="1" style="stop-color:#84C14A"/>
</linearGradient>
<polygon fill="url(#SVGID_10_)" stroke="#B8F498" stroke-width="0.5" stroke-miterlimit="10" points="71.238,65.742 49.291,53.07 
	71.238,40.399 "/>
<linearGradient id="SVGID_11_" gradientUnits="userSpaceOnUse" x1="49.291" y1="27.7368" x2="71.2383" y2="27.7368">
	<stop  offset="0" style="stop-color:#53BC22"/>
	<stop  offset="1" style="stop-color:#84C14A"/>
</linearGradient>
<polygon fill="url(#SVGID_11_)" stroke="#B8F498" stroke-width="0.5" stroke-miterlimit="10" points="71.238,40.409 49.291,27.737 
	71.238,15.065 "/>
</svg>
