<?xml version="1.0" encoding="utf-8"?>
<!-- Generator: Adobe Illustrator 16.0.0, SVG Export Plug-In . SVG Version: 6.00 Build 0)  -->
<!DOCTYPE svg PUBLIC "-//W3C//DTD SVG 1.1//EN" "http://www.w3.org/Graphics/SVG/1.1/DTD/svg11.dtd">
<svg version="1.1" id="Layer_1" xmlns="http://www.w3.org/2000/svg" xmlns:xlink="http://www.w3.org/1999/xlink" x="0px" y="0px"
	 width="100px" height="105.667px" viewBox="0 0 100 105.667" enable-background="new 0 0 100 105.667" xml:space="preserve">
<linearGradient id="SVGID_1_" gradientUnits="userSpaceOnUse" x1="4.7959" y1="40.9023" x2="26.7432" y2="40.9023">
	<stop  offset="0" style="stop-color:#29BFCD"/>
	<stop  offset="1" style="stop-color:#029DCC"/>
</linearGradient>
<polygon fill="url(#SVGID_1_)" stroke="#88EAE5" stroke-width="0.5" stroke-miterlimit="10" points="4.796,28.231 26.743,40.903 
	4.796,53.574 "/>
<linearGradient id="SVGID_2_" gradientUnits="userSpaceOnUse" x1="4.7959" y1="66.437" x2="26.7432" y2="66.437">
	<stop  offset="0" style="stop-color:#29BFCD"/>
	<stop  offset="1" style="stop-color:#029DCC"/>
</linearGradient>
<polygon fill="url(#SVGID_2_)" stroke="#88EAE5" stroke-width="0.5" stroke-miterlimit="10" points="4.796,53.766 26.743,66.436 
	4.796,79.107 "/>
<linearGradient id="SVGID_3_" gradientUnits="userSpaceOnUse" x1="4.7959" y1="79.271" x2="26.7432" y2="79.271">
	<stop  offset="0" style="stop-color:#29BFCD"/>
	<stop  offset="1" style="stop-color:#029DCC"/>
</linearGradient>
<polygon fill="url(#SVGID_3_)" stroke="#88EAE5" stroke-width="0.5" stroke-miterlimit="10" points="26.743,91.941 4.796,79.27 
	26.743,66.6 "/>
<polygon fill="#29BFCD" stroke="#88EAE5" stroke-width="0.5" stroke-miterlimit="10" points="26.743,66.408 4.796,53.736 
	26.743,41.065 "/>
<polygon fill="#29BFCD" stroke="#88EAE5" stroke-width="0.5" stroke-miterlimit="10" points="26.743,41.075 4.796,28.404 
	26.743,15.732 "/>
<polygon fill="#29BFCD" stroke="#88EAE5" stroke-width="0.5" stroke-miterlimit="10" points="48.743,79.441 26.796,66.77 
	48.743,54.1 "/>
<polygon fill="#29BFCD" stroke="#88EAE5" stroke-width="0.5" stroke-miterlimit="10" points="48.743,104.774 26.796,92.103 
	48.743,79.432 "/>
<linearGradient id="SVGID_4_" gradientUnits="userSpaceOnUse" x1="26.7959" y1="41.2363" x2="48.7432" y2="41.2363">
	<stop  offset="0" style="stop-color:#29BFCD"/>
	<stop  offset="1" style="stop-color:#029DCC"/>
</linearGradient>
<polygon fill="url(#SVGID_4_)" stroke="#88EAE5" stroke-width="0.5" stroke-miterlimit="10" points="48.743,53.908 26.796,41.237 
	48.743,28.565 "/>
<polygon fill="#29BFCD" stroke="#88EAE5" stroke-width="0.5" stroke-miterlimit="10" points="48.743,28.241 26.796,15.571 
	48.743,2.899 "/>
<linearGradient id="SVGID_5_" gradientUnits="userSpaceOnUse" x1="26.7959" y1="28.4019" x2="48.7432" y2="28.4019">
	<stop  offset="0" style="stop-color:#29BFCD"/>
	<stop  offset="1" style="stop-color:#029DCC"/>
</linearGradient>
<polygon fill="url(#SVGID_5_)" stroke="#88EAE5" stroke-width="0.5" stroke-miterlimit="10" points="26.796,15.731 48.743,28.403 
	26.796,41.073 "/>
<linearGradient id="SVGID_6_" gradientUnits="userSpaceOnUse" x1="26.7959" y1="53.936" x2="48.7432" y2="53.936">
	<stop  offset="0" style="stop-color:#29BFCD"/>
	<stop  offset="1" style="stop-color:#029DCC"/>
</linearGradient>
<polygon fill="url(#SVGID_6_)" stroke="#88EAE5" stroke-width="0.5" stroke-miterlimit="10" points="26.796,41.265 48.743,53.936 
	26.796,66.607 "/>
<linearGradient id="SVGID_7_" gradientUnits="userSpaceOnUse" x1="26.7959" y1="79.269" x2="48.7432" y2="79.269">
	<stop  offset="0" style="stop-color:#29BFCD"/>
	<stop  offset="1" style="stop-color:#029DCC"/>
</linearGradient>
<polygon fill="url(#SVGID_7_)" stroke="#88EAE5" stroke-width="0.5" stroke-miterlimit="10" points="26.796,66.598 48.743,79.27 
	26.796,91.941 "/>
<polygon fill="#29BFCD" stroke="#88EAE5" stroke-width="0.5" stroke-miterlimit="10" points="92.743,79.441 70.796,66.771 
	92.743,54.1 "/>
<linearGradient id="SVGID_8_" gradientUnits="userSpaceOnUse" x1="70.7959" y1="41.2368" x2="92.7432" y2="41.2368">
	<stop  offset="0" style="stop-color:#29BFCD"/>
	<stop  offset="1" style="stop-color:#029DCC"/>
</linearGradient>
<polygon fill="url(#SVGID_8_)" stroke="#88EAE5" stroke-width="0.5" stroke-miterlimit="10" points="92.743,53.908 70.796,41.238 
	92.743,28.566 "/>
<linearGradient id="SVGID_9_" gradientUnits="userSpaceOnUse" x1="70.7959" y1="28.4028" x2="92.7432" y2="28.4028">
	<stop  offset="0" style="stop-color:#29BFCD"/>
	<stop  offset="1" style="stop-color:#029DCC"/>
</linearGradient>
<polygon fill="url(#SVGID_9_)" stroke="#88EAE5" stroke-width="0.5" stroke-miterlimit="10" points="70.796,15.732 92.743,28.404 
	70.796,41.074 "/>
<linearGradient id="SVGID_10_" gradientUnits="userSpaceOnUse" x1="70.7959" y1="53.937" x2="92.7432" y2="53.937">
	<stop  offset="0" style="stop-color:#29BFCD"/>
	<stop  offset="1" style="stop-color:#029DCC"/>
</linearGradient>
<polygon fill="url(#SVGID_10_)" stroke="#88EAE5" stroke-width="0.5" stroke-miterlimit="10" points="70.796,41.265 92.743,53.937 
	70.796,66.608 "/>
<polygon fill="#29BFCD" stroke="#88EAE5" stroke-width="0.5" stroke-miterlimit="10" points="70.796,66.598 92.743,79.27 
	70.796,91.941 "/>
<linearGradient id="SVGID_11_" gradientUnits="userSpaceOnUse" x1="48.7959" y1="40.9028" x2="70.7432" y2="40.9028">
	<stop  offset="0" style="stop-color:#29BFCD"/>
	<stop  offset="1" style="stop-color:#029DCC"/>
</linearGradient>
<polygon fill="url(#SVGID_11_)" stroke="#88EAE5" stroke-width="0.5" stroke-miterlimit="10" points="48.796,28.232 70.743,40.904 
	48.796,53.574 "/>
<polygon fill="#29BFCD" stroke="#88EAE5" stroke-width="0.5" stroke-miterlimit="10" points="48.796,2.899 70.743,15.571 
	48.796,28.242 "/>
<linearGradient id="SVGID_12_" gradientUnits="userSpaceOnUse" x1="48.7959" y1="66.437" x2="70.7432" y2="66.437">
	<stop  offset="0" style="stop-color:#29BFCD"/>
	<stop  offset="1" style="stop-color:#029DCC"/>
</linearGradient>
<polygon fill="url(#SVGID_12_)" stroke="#88EAE5" stroke-width="0.5" stroke-miterlimit="10" points="48.796,53.766 70.743,66.436 
	48.796,79.107 "/>
<linearGradient id="SVGID_13_" gradientUnits="userSpaceOnUse" x1="48.7959" y1="92.103" x2="70.7432" y2="92.103">
	<stop  offset="0" style="stop-color:#29BFCD"/>
	<stop  offset="1" style="stop-color:#029DCC"/>
</linearGradient>
<polygon fill="url(#SVGID_13_)" stroke="#88EAE5" stroke-width="0.5" stroke-miterlimit="10" points="48.796,79.432 70.743,92.103 
	48.796,104.774 "/>
<linearGradient id="SVGID_14_" gradientUnits="userSpaceOnUse" x1="48.7959" y1="79.271" x2="70.7432" y2="79.271">
	<stop  offset="0" style="stop-color:#29BFCD"/>
	<stop  offset="1" style="stop-color:#029DCC"/>
</linearGradient>
<polygon fill="url(#SVGID_14_)" stroke="#88EAE5" stroke-width="0.5" stroke-miterlimit="10" points="70.743,91.941 48.796,79.27 
	70.743,66.6 "/>
<linearGradient id="SVGID_15_" gradientUnits="userSpaceOnUse" x1="48.7959" y1="53.7368" x2="70.7432" y2="53.7368">
	<stop  offset="0" style="stop-color:#29BFCD"/>
	<stop  offset="1" style="stop-color:#029DCC"/>
</linearGradient>
<polygon fill="url(#SVGID_15_)" stroke="#88EAE5" stroke-width="0.5" stroke-miterlimit="10" points="70.743,66.408 48.796,53.737 
	70.743,41.066 "/>
<linearGradient id="SVGID_16_" gradientUnits="userSpaceOnUse" x1="48.7959" y1="28.4038" x2="70.7432" y2="28.4038">
	<stop  offset="0" style="stop-color:#29BFCD"/>
	<stop  offset="1" style="stop-color:#029DCC"/>
</linearGradient>
<polygon fill="url(#SVGID_16_)" stroke="#88EAE5" stroke-width="0.5" stroke-miterlimit="10" points="70.743,41.076 48.796,28.404 
	70.743,15.732 "/>
</svg>
