<?xml version="1.0" encoding="utf-8"?>
<!-- Generator: Adobe Illustrator 16.0.0, SVG Export Plug-In . SVG Version: 6.00 Build 0)  -->
<!DOCTYPE svg PUBLIC "-//W3C//DTD SVG 1.1//EN" "http://www.w3.org/Graphics/SVG/1.1/DTD/svg11.dtd">
<svg version="1.1" id="Layer_1" xmlns="http://www.w3.org/2000/svg" xmlns:xlink="http://www.w3.org/1999/xlink" x="0px" y="0px"
	 width="100px" height="105.667px" viewBox="0 0 100 105.667" enable-background="new 0 0 100 105.667" xml:space="preserve">
<linearGradient id="SVGID_1_" gradientUnits="userSpaceOnUse" x1="5.3018" y1="41.4023" x2="27.249" y2="41.4023">
	<stop  offset="0" style="stop-color:#FF834D"/>
	<stop  offset="1" style="stop-color:#FF6536"/>
</linearGradient>
<polygon fill="url(#SVGID_1_)" stroke="#FFBCA1" stroke-width="0.5" stroke-miterlimit="10" points="5.302,28.731 27.249,41.402 
	5.302,54.074 "/>
<polygon fill="#FF834D" stroke="#FFBCA1" stroke-width="0.5" stroke-miterlimit="10" points="5.302,54.266 27.249,66.936 
	5.302,79.607 "/>
<linearGradient id="SVGID_2_" gradientUnits="userSpaceOnUse" x1="5.3018" y1="79.771" x2="27.249" y2="79.771">
	<stop  offset="0" style="stop-color:#FF834D"/>
	<stop  offset="1" style="stop-color:#FF6536"/>
</linearGradient>
<polygon fill="url(#SVGID_2_)" stroke="#FFBCA1" stroke-width="0.5" stroke-miterlimit="10" points="27.249,92.441 5.302,79.77 
	27.249,67.1 "/>
<linearGradient id="SVGID_3_" gradientUnits="userSpaceOnUse" x1="5.3018" y1="54.2358" x2="27.249" y2="54.2358">
	<stop  offset="0" style="stop-color:#FF834D"/>
	<stop  offset="1" style="stop-color:#FF6536"/>
</linearGradient>
<polygon fill="url(#SVGID_3_)" stroke="#FFBCA1" stroke-width="0.5" stroke-miterlimit="10" points="27.249,66.908 5.302,54.236 
	27.249,41.564 "/>
<polygon fill="#FF834D" stroke="#FFBCA1" stroke-width="0.5" stroke-miterlimit="10" points="27.249,41.574 5.302,28.903 
	27.249,16.231 "/>
<linearGradient id="SVGID_4_" gradientUnits="userSpaceOnUse" x1="27.3018" y1="67.271" x2="49.249" y2="67.271">
	<stop  offset="0" style="stop-color:#FF834D"/>
	<stop  offset="1" style="stop-color:#FF6536"/>
</linearGradient>
<polygon fill="url(#SVGID_4_)" stroke="#FFBCA1" stroke-width="0.5" stroke-miterlimit="10" points="49.249,79.941 27.302,67.27 
	49.249,54.6 "/>
<polygon fill="#FF834D" stroke="#FFBCA1" stroke-width="0.5" stroke-miterlimit="10" points="49.249,105.273 27.302,92.602 
	49.249,79.932 "/>
<linearGradient id="SVGID_5_" gradientUnits="userSpaceOnUse" x1="27.3018" y1="41.7363" x2="49.249" y2="41.7363">
	<stop  offset="0" style="stop-color:#FF834D"/>
	<stop  offset="1" style="stop-color:#FF6536"/>
</linearGradient>
<polygon fill="url(#SVGID_5_)" stroke="#FFBCA1" stroke-width="0.5" stroke-miterlimit="10" points="49.249,54.408 27.302,41.736 
	49.249,29.065 "/>
<linearGradient id="SVGID_6_" gradientUnits="userSpaceOnUse" x1="27.3018" y1="16.0698" x2="49.249" y2="16.0698">
	<stop  offset="0" style="stop-color:#FF834D"/>
	<stop  offset="1" style="stop-color:#FF6536"/>
</linearGradient>
<polygon fill="url(#SVGID_6_)" stroke="#FFBCA1" stroke-width="0.5" stroke-miterlimit="10" points="49.249,28.741 27.302,16.07 
	49.249,3.398 "/>
<linearGradient id="SVGID_7_" gradientUnits="userSpaceOnUse" x1="27.3018" y1="28.9014" x2="49.249" y2="28.9014">
	<stop  offset="0" style="stop-color:#FF834D"/>
	<stop  offset="1" style="stop-color:#FF6536"/>
</linearGradient>
<polygon fill="url(#SVGID_7_)" stroke="#FFBCA1" stroke-width="0.5" stroke-miterlimit="10" points="27.302,16.231 49.249,28.903 
	27.302,41.572 "/>
<polygon fill="#FF834D" stroke="#FFBCA1" stroke-width="0.5" stroke-miterlimit="10" points="27.302,41.764 49.249,54.436 
	27.302,67.107 "/>
<linearGradient id="SVGID_8_" gradientUnits="userSpaceOnUse" x1="27.3018" y1="79.769" x2="49.249" y2="79.769">
	<stop  offset="0" style="stop-color:#FF834D"/>
	<stop  offset="1" style="stop-color:#FF6536"/>
</linearGradient>
<polygon fill="url(#SVGID_8_)" stroke="#FFBCA1" stroke-width="0.5" stroke-miterlimit="10" points="27.302,67.098 49.249,79.77 
	27.302,92.441 "/>
<polygon fill="#FF834D" stroke="#FFBCA1" stroke-width="0.5" stroke-miterlimit="10" points="93.249,79.941 71.302,67.27 
	93.249,54.6 "/>
<linearGradient id="SVGID_9_" gradientUnits="userSpaceOnUse" x1="71.3018" y1="41.7363" x2="93.249" y2="41.7363">
	<stop  offset="0" style="stop-color:#FF834D"/>
	<stop  offset="1" style="stop-color:#FF6536"/>
</linearGradient>
<polygon fill="url(#SVGID_9_)" stroke="#FFBCA1" stroke-width="0.5" stroke-miterlimit="10" points="93.249,54.408 71.302,41.737 
	93.249,29.065 "/>
<polygon fill="#FF834D" stroke="#FFBCA1" stroke-width="0.5" stroke-miterlimit="10" points="71.302,16.231 93.249,28.903 
	71.302,41.573 "/>
<linearGradient id="SVGID_10_" gradientUnits="userSpaceOnUse" x1="71.3018" y1="54.436" x2="93.249" y2="54.436">
	<stop  offset="0" style="stop-color:#FF834D"/>
	<stop  offset="1" style="stop-color:#FF6536"/>
</linearGradient>
<polygon fill="url(#SVGID_10_)" stroke="#FFBCA1" stroke-width="0.5" stroke-miterlimit="10" points="71.302,41.765 93.249,54.436 
	71.302,67.107 "/>
<polygon fill="#FF834D" stroke="#FFBCA1" stroke-width="0.5" stroke-miterlimit="10" points="71.302,67.098 93.249,79.77 
	71.302,92.441 "/>
<linearGradient id="SVGID_11_" gradientUnits="userSpaceOnUse" x1="49.3018" y1="41.4023" x2="71.249" y2="41.4023">
	<stop  offset="0" style="stop-color:#FF834D"/>
	<stop  offset="1" style="stop-color:#FF6536"/>
</linearGradient>
<polygon fill="url(#SVGID_11_)" stroke="#FFBCA1" stroke-width="0.5" stroke-miterlimit="10" points="49.302,28.731 71.249,41.403 
	49.302,54.074 "/>
<polygon fill="#FF834D" stroke="#FFBCA1" stroke-width="0.5" stroke-miterlimit="10" points="49.302,3.398 71.249,16.07 
	49.302,28.741 "/>
<linearGradient id="SVGID_12_" gradientUnits="userSpaceOnUse" x1="49.3018" y1="66.937" x2="71.249" y2="66.937">
	<stop  offset="0" style="stop-color:#FF834D"/>
	<stop  offset="1" style="stop-color:#FF6536"/>
</linearGradient>
<polygon fill="url(#SVGID_12_)" stroke="#FFBCA1" stroke-width="0.5" stroke-miterlimit="10" points="49.302,54.266 71.249,66.936 
	49.302,79.607 "/>
<linearGradient id="SVGID_13_" gradientUnits="userSpaceOnUse" x1="49.3018" y1="92.603" x2="71.249" y2="92.603">
	<stop  offset="0" style="stop-color:#FF834D"/>
	<stop  offset="1" style="stop-color:#FF6536"/>
</linearGradient>
<polygon fill="url(#SVGID_13_)" stroke="#FFBCA1" stroke-width="0.5" stroke-miterlimit="10" points="49.302,79.932 71.249,92.602 
	49.302,105.273 "/>
<polygon fill="#FF834D" stroke="#FFBCA1" stroke-width="0.5" stroke-miterlimit="10" points="71.249,92.441 49.302,79.77 
	71.249,67.1 "/>
<linearGradient id="SVGID_14_" gradientUnits="userSpaceOnUse" x1="49.3018" y1="54.2358" x2="71.249" y2="54.2358">
	<stop  offset="0" style="stop-color:#FF834D"/>
	<stop  offset="1" style="stop-color:#FF6536"/>
</linearGradient>
<polygon fill="url(#SVGID_14_)" stroke="#FFBCA1" stroke-width="0.5" stroke-miterlimit="10" points="71.249,66.908 49.302,54.236 
	71.249,41.565 "/>
<linearGradient id="SVGID_15_" gradientUnits="userSpaceOnUse" x1="49.3018" y1="28.9028" x2="71.249" y2="28.9028">
	<stop  offset="0" style="stop-color:#FF834D"/>
	<stop  offset="1" style="stop-color:#FF6536"/>
</linearGradient>
<polygon fill="url(#SVGID_15_)" stroke="#FFBCA1" stroke-width="0.5" stroke-miterlimit="10" points="71.249,41.575 49.302,28.903 
	71.249,16.231 "/>
</svg>
