<?xml version="1.0" encoding="utf-8"?>
<!-- Generator: Adobe Illustrator 16.0.0, SVG Export Plug-In . SVG Version: 6.00 Build 0)  -->
<!DOCTYPE svg PUBLIC "-//W3C//DTD SVG 1.1//EN" "http://www.w3.org/Graphics/SVG/1.1/DTD/svg11.dtd">
<svg version="1.1" id="Layer_1" xmlns="http://www.w3.org/2000/svg" xmlns:xlink="http://www.w3.org/1999/xlink" x="0px" y="0px"
	 width="100px" height="105.667px" viewBox="0 0 100 105.667" enable-background="new 0 0 100 105.667" xml:space="preserve">
<linearGradient id="SVGID_1_" gradientUnits="userSpaceOnUse" x1="4.7871" y1="41.3984" x2="26.7339" y2="41.3984">
	<stop  offset="0" style="stop-color:#ED4A6A"/>
	<stop  offset="1" style="stop-color:#E81566"/>
</linearGradient>
<polygon fill="url(#SVGID_1_)" stroke="#E59CC1" stroke-width="0.5" stroke-miterlimit="10" points="4.787,28.727 26.734,41.398 
	4.787,54.07 "/>
<polygon fill="#ED4A6A" stroke="#E59CC1" stroke-width="0.5" stroke-miterlimit="10" points="4.787,54.262 26.734,66.932 
	4.787,79.604 "/>
<linearGradient id="SVGID_2_" gradientUnits="userSpaceOnUse" x1="4.7871" y1="79.7671" x2="26.7339" y2="79.7671">
	<stop  offset="0" style="stop-color:#ED4A6A"/>
	<stop  offset="1" style="stop-color:#E81566"/>
</linearGradient>
<polygon fill="url(#SVGID_2_)" stroke="#E59CC1" stroke-width="0.5" stroke-miterlimit="10" points="26.734,92.438 4.787,79.766 
	26.734,67.096 "/>
<polygon fill="#ED4A6A" stroke="#E59CC1" stroke-width="0.5" stroke-miterlimit="10" points="26.734,66.904 4.787,54.232 
	26.734,41.561 "/>
<polygon fill="#ED4A6A" stroke="#E59CC1" stroke-width="0.5" stroke-miterlimit="10" points="26.734,41.57 4.787,28.899 
	26.734,16.228 "/>
<polygon fill="#ED4A6A" stroke="#E59CC1" stroke-width="0.5" stroke-miterlimit="10" points="48.734,79.938 26.787,67.266 
	48.734,54.596 "/>
<linearGradient id="SVGID_3_" gradientUnits="userSpaceOnUse" x1="26.7871" y1="92.5991" x2="48.7339" y2="92.5991">
	<stop  offset="0" style="stop-color:#ED4A6A"/>
	<stop  offset="1" style="stop-color:#E81566"/>
</linearGradient>
<polygon fill="url(#SVGID_3_)" stroke="#E59CC1" stroke-width="0.5" stroke-miterlimit="10" points="48.734,105.27 26.787,92.598 
	48.734,79.928 "/>
<polygon fill="#ED4A6A" stroke="#E59CC1" stroke-width="0.5" stroke-miterlimit="10" points="48.734,54.404 26.787,41.732 
	48.734,29.061 "/>
<polygon fill="#ED4A6A" stroke="#E59CC1" stroke-width="0.5" stroke-miterlimit="10" points="48.734,28.736 26.787,16.066 
	48.734,3.395 "/>
<polygon fill="#ED4A6A" stroke="#E59CC1" stroke-width="0.5" stroke-miterlimit="10" points="26.787,16.227 48.734,28.898 
	26.787,41.568 "/>
<linearGradient id="SVGID_4_" gradientUnits="userSpaceOnUse" x1="26.7871" y1="54.4321" x2="48.7339" y2="54.4321">
	<stop  offset="0" style="stop-color:#ED4A6A"/>
	<stop  offset="1" style="stop-color:#E81566"/>
</linearGradient>
<polygon fill="url(#SVGID_4_)" stroke="#E59CC1" stroke-width="0.5" stroke-miterlimit="10" points="26.787,41.76 48.734,54.432 
	26.787,67.104 "/>
<linearGradient id="SVGID_5_" gradientUnits="userSpaceOnUse" x1="26.7871" y1="79.7651" x2="48.7339" y2="79.7651">
	<stop  offset="0" style="stop-color:#ED4A6A"/>
	<stop  offset="1" style="stop-color:#E81566"/>
</linearGradient>
<polygon fill="url(#SVGID_5_)" stroke="#E59CC1" stroke-width="0.5" stroke-miterlimit="10" points="26.787,67.093 48.734,79.766 
	26.787,92.438 "/>
<polygon fill="#ED4A6A" stroke="#E59CC1" stroke-width="0.5" stroke-miterlimit="10" points="92.734,79.938 70.787,67.266 
	92.734,54.596 "/>
<polygon fill="#ED4A6A" stroke="#E59CC1" stroke-width="0.5" stroke-miterlimit="10" points="92.734,54.404 70.787,41.733 
	92.734,29.062 "/>
<linearGradient id="SVGID_6_" gradientUnits="userSpaceOnUse" x1="70.7871" y1="28.8984" x2="92.7344" y2="28.8984">
	<stop  offset="0" style="stop-color:#ED4A6A"/>
	<stop  offset="1" style="stop-color:#E81566"/>
</linearGradient>
<polygon fill="url(#SVGID_6_)" stroke="#E59CC1" stroke-width="0.5" stroke-miterlimit="10" points="70.787,16.228 92.734,28.899 
	70.787,41.569 "/>
<polygon fill="#ED4A6A" stroke="#E59CC1" stroke-width="0.5" stroke-miterlimit="10" points="70.787,41.761 92.734,54.432 
	70.787,67.104 "/>
<linearGradient id="SVGID_7_" gradientUnits="userSpaceOnUse" x1="70.7871" y1="79.7651" x2="92.7344" y2="79.7651">
	<stop  offset="0" style="stop-color:#ED4A6A"/>
	<stop  offset="1" style="stop-color:#E81566"/>
</linearGradient>
<polygon fill="url(#SVGID_7_)" stroke="#E59CC1" stroke-width="0.5" stroke-miterlimit="10" points="70.787,67.093 92.734,79.766 
	70.787,92.438 "/>
<linearGradient id="SVGID_8_" gradientUnits="userSpaceOnUse" x1="48.7871" y1="41.3989" x2="70.7344" y2="41.3989">
	<stop  offset="0" style="stop-color:#ED4A6A"/>
	<stop  offset="1" style="stop-color:#E81566"/>
</linearGradient>
<polygon fill="url(#SVGID_8_)" stroke="#E59CC1" stroke-width="0.5" stroke-miterlimit="10" points="48.787,28.728 70.734,41.399 
	48.787,54.07 "/>
<linearGradient id="SVGID_9_" gradientUnits="userSpaceOnUse" x1="48.7871" y1="16.0659" x2="70.7344" y2="16.0659">
	<stop  offset="0" style="stop-color:#ED4A6A"/>
	<stop  offset="1" style="stop-color:#E81566"/>
</linearGradient>
<polygon fill="url(#SVGID_9_)" stroke="#E59CC1" stroke-width="0.5" stroke-miterlimit="10" points="48.787,3.395 70.734,16.066 
	48.787,28.737 "/>
<linearGradient id="SVGID_10_" gradientUnits="userSpaceOnUse" x1="48.7871" y1="66.9331" x2="70.7344" y2="66.9331">
	<stop  offset="0" style="stop-color:#ED4A6A"/>
	<stop  offset="1" style="stop-color:#E81566"/>
</linearGradient>
<polygon fill="url(#SVGID_10_)" stroke="#E59CC1" stroke-width="0.5" stroke-miterlimit="10" points="48.787,54.262 70.734,66.932 
	48.787,79.604 "/>
<polygon fill="#ED4A6A" stroke="#E59CC1" stroke-width="0.5" stroke-miterlimit="10" points="48.787,79.928 70.734,92.598 
	48.787,105.27 "/>
<polygon fill="#ED4A6A" stroke="#E59CC1" stroke-width="0.5" stroke-miterlimit="10" points="70.734,92.438 48.787,79.766 
	70.734,67.096 "/>
<linearGradient id="SVGID_11_" gradientUnits="userSpaceOnUse" x1="48.7871" y1="54.2329" x2="70.7344" y2="54.2329">
	<stop  offset="0" style="stop-color:#ED4A6A"/>
	<stop  offset="1" style="stop-color:#E81566"/>
</linearGradient>
<polygon fill="url(#SVGID_11_)" stroke="#E59CC1" stroke-width="0.5" stroke-miterlimit="10" points="70.734,66.904 48.787,54.232 
	70.734,41.562 "/>
<polygon fill="#ED4A6A" stroke="#E59CC1" stroke-width="0.5" stroke-miterlimit="10" points="70.734,41.571 48.787,28.899 
	70.734,16.228 "/>
</svg>
