<?xml version="1.0" encoding="utf-8"?>
<!-- Generator: Adobe Illustrator 16.0.0, SVG Export Plug-In . SVG Version: 6.00 Build 0)  -->
<!DOCTYPE svg PUBLIC "-//W3C//DTD SVG 1.1//EN" "http://www.w3.org/Graphics/SVG/1.1/DTD/svg11.dtd">
<svg version="1.1" id="Layer_1" xmlns="http://www.w3.org/2000/svg" xmlns:xlink="http://www.w3.org/1999/xlink" x="0px" y="0px"
	 width="100px" height="105.667px" viewBox="0 0 100 105.667" enable-background="new 0 0 100 105.667" xml:space="preserve">
<linearGradient id="SVGID_1_" gradientUnits="userSpaceOnUse" x1="5.5859" y1="40.7495" x2="27.5332" y2="40.7495">
	<stop  offset="0" style="stop-color:#A17CB5"/>
	<stop  offset="1" style="stop-color:#735DA3"/>
</linearGradient>
<polygon fill="url(#SVGID_1_)" stroke="#CEBAE8" stroke-width="0.5" stroke-miterlimit="10" points="5.586,28.078 27.533,40.75 
	5.586,53.421 "/>
<polygon fill="#A17CB5" stroke="#CEBAE8" stroke-width="0.5" stroke-miterlimit="10" points="5.586,53.612 27.533,66.283 
	5.586,78.955 "/>
<linearGradient id="SVGID_2_" gradientUnits="userSpaceOnUse" x1="5.5859" y1="79.1167" x2="27.5332" y2="79.1167">
	<stop  offset="0" style="stop-color:#A17CB5"/>
	<stop  offset="1" style="stop-color:#735DA3"/>
</linearGradient>
<polygon fill="url(#SVGID_2_)" stroke="#CEBAE8" stroke-width="0.5" stroke-miterlimit="10" points="27.533,91.789 5.586,79.117 
	27.533,66.446 "/>
<polygon fill="#A17CB5" stroke="#CEBAE8" stroke-width="0.5" stroke-miterlimit="10" points="27.533,66.255 5.586,53.583 
	27.533,40.912 "/>
<polygon fill="#A17CB5" stroke="#CEBAE8" stroke-width="0.5" stroke-miterlimit="10" points="27.533,40.922 5.586,28.25 
	27.533,15.578 "/>
<linearGradient id="SVGID_3_" gradientUnits="userSpaceOnUse" x1="27.5859" y1="66.6167" x2="49.5332" y2="66.6167">
	<stop  offset="0" style="stop-color:#A17CB5"/>
	<stop  offset="1" style="stop-color:#735DA3"/>
</linearGradient>
<polygon fill="url(#SVGID_3_)" stroke="#CEBAE8" stroke-width="0.5" stroke-miterlimit="10" points="49.533,79.289 27.586,66.617 
	49.533,53.946 "/>
<polygon fill="#A17CB5" stroke="#CEBAE8" stroke-width="0.5" stroke-miterlimit="10" points="49.533,104.621 27.586,91.949 
	49.533,79.278 "/>
<linearGradient id="SVGID_4_" gradientUnits="userSpaceOnUse" x1="27.5859" y1="41.0835" x2="49.5332" y2="41.0835">
	<stop  offset="0" style="stop-color:#A17CB5"/>
	<stop  offset="1" style="stop-color:#8867A5"/>
</linearGradient>
<polygon fill="url(#SVGID_4_)" stroke="#CEBAE8" stroke-width="0.5" stroke-miterlimit="10" points="49.533,53.755 27.586,41.084 
	49.533,28.412 "/>
<polygon fill="#A17CB5" stroke="#CEBAE8" stroke-width="0.5" stroke-miterlimit="10" points="49.533,28.088 27.586,15.418 
	49.533,2.746 "/>
<polygon fill="#A17CB5" stroke="#CEBAE8" stroke-width="0.5" stroke-miterlimit="10" points="27.586,15.578 49.533,28.25 
	27.586,40.92 "/>
<polygon fill="#A17CB5" stroke="#CEBAE8" stroke-width="0.5" stroke-miterlimit="10" points="27.586,41.111 49.533,53.783 
	27.586,66.455 "/>
<polygon fill="#A17CB5" stroke="#CEBAE8" stroke-width="0.5" stroke-miterlimit="10" points="27.586,66.444 49.533,79.117 
	27.586,91.789 "/>
<polygon fill="#A17CB5" stroke="#CEBAE8" stroke-width="0.5" stroke-miterlimit="10" points="93.533,79.289 71.586,66.617 
	93.533,53.946 "/>
<polygon fill="#A17CB5" stroke="#CEBAE8" stroke-width="0.5" stroke-miterlimit="10" points="93.533,53.755 71.586,41.084 
	93.533,28.412 "/>
<polygon fill="#A17CB5" stroke="#CEBAE8" stroke-width="0.5" stroke-miterlimit="10" points="71.586,15.578 93.533,28.25 
	71.586,40.92 "/>
<linearGradient id="SVGID_5_" gradientUnits="userSpaceOnUse" x1="71.5859" y1="53.7827" x2="93.5332" y2="53.7827">
	<stop  offset="0" style="stop-color:#A17CB5"/>
	<stop  offset="1" style="stop-color:#735DA3"/>
</linearGradient>
<polygon fill="url(#SVGID_5_)" stroke="#CEBAE8" stroke-width="0.5" stroke-miterlimit="10" points="71.586,41.111 93.533,53.783 
	71.586,66.455 "/>
<linearGradient id="SVGID_6_" gradientUnits="userSpaceOnUse" x1="71.5859" y1="79.1167" x2="93.5332" y2="79.1167">
	<stop  offset="0" style="stop-color:#A17CB5"/>
	<stop  offset="1" style="stop-color:#735DA3"/>
</linearGradient>
<polygon fill="url(#SVGID_6_)" stroke="#CEBAE8" stroke-width="0.5" stroke-miterlimit="10" points="71.586,66.444 93.533,79.117 
	71.586,91.789 "/>
<polygon fill="#A17CB5" stroke="#CEBAE8" stroke-width="0.5" stroke-miterlimit="10" points="49.586,28.078 71.533,40.75 
	49.586,53.421 "/>
<linearGradient id="SVGID_7_" gradientUnits="userSpaceOnUse" x1="49.5859" y1="15.417" x2="71.5332" y2="15.417">
	<stop  offset="0" style="stop-color:#A17CB5"/>
	<stop  offset="1" style="stop-color:#735DA3"/>
</linearGradient>
<polygon fill="url(#SVGID_7_)" stroke="#CEBAE8" stroke-width="0.5" stroke-miterlimit="10" points="49.586,2.746 71.533,15.418 
	49.586,28.088 "/>
<polygon fill="#A17CB5" stroke="#CEBAE8" stroke-width="0.5" stroke-miterlimit="10" points="49.586,53.612 71.533,66.283 
	49.586,78.955 "/>
<polygon fill="#A17CB5" stroke="#CEBAE8" stroke-width="0.5" stroke-miterlimit="10" points="49.586,79.278 71.533,91.949 
	49.586,104.621 "/>
<linearGradient id="SVGID_8_" gradientUnits="userSpaceOnUse" x1="49.5859" y1="79.1167" x2="71.5332" y2="79.1167">
	<stop  offset="0" style="stop-color:#A17CB5"/>
	<stop  offset="1" style="stop-color:#735DA3"/>
</linearGradient>
<polygon fill="url(#SVGID_8_)" stroke="#CEBAE8" stroke-width="0.5" stroke-miterlimit="10" points="71.533,91.789 49.586,79.117 
	71.533,66.446 "/>
<linearGradient id="SVGID_9_" gradientUnits="userSpaceOnUse" x1="49.5859" y1="53.5835" x2="71.5332" y2="53.5835">
	<stop  offset="0" style="stop-color:#A17CB5"/>
	<stop  offset="1" style="stop-color:#735DA3"/>
</linearGradient>
<polygon fill="url(#SVGID_9_)" stroke="#CEBAE8" stroke-width="0.5" stroke-miterlimit="10" points="71.533,66.255 49.586,53.583 
	71.533,40.912 "/>
<polygon fill="#A17CB5" stroke="#CEBAE8" stroke-width="0.5" stroke-miterlimit="10" points="71.533,40.922 49.586,28.25 
	71.533,15.578 "/>
</svg>
