<?xml version="1.0" encoding="utf-8"?>
<!-- Generator: Adobe Illustrator 16.0.0, SVG Export Plug-In . SVG Version: 6.00 Build 0)  -->
<!DOCTYPE svg PUBLIC "-//W3C//DTD SVG 1.1//EN" "http://www.w3.org/Graphics/SVG/1.1/DTD/svg11.dtd">
<svg version="1.1" id="Layer_1" xmlns="http://www.w3.org/2000/svg" xmlns:xlink="http://www.w3.org/1999/xlink" x="0px" y="0px"
	 width="26.501px" height="26.679px" viewBox="0 0 26.501 26.679" enable-background="new 0 0 26.501 26.679" xml:space="preserve">
<path fill="#B5B8C0" d="M5.31,14.053l0.005,3.902c0,0,3.646-2.383,7.728,0c4.083,2.383,7.729,0,7.729,0v-3.902
	c0,0-3.646,2.473-7.731,0C8.955,11.579,5.31,14.053,5.31,14.053z M5.312,8.167l0.004,3.903c0,0,3.646-2.383,7.729,0
	c4.083,2.383,7.729,0,7.729,0V8.167c0,0-3.646,2.473-7.731,0C8.957,5.694,5.312,8.167,5.312,8.167z M25.082,13.041
	c0,6.65-5.391,12.041-12.041,12.041C6.391,25.082,1,19.691,1,13.041C1,6.391,6.391,1,13.041,1C19.691,1,25.082,6.391,25.082,13.041z
	"/>
</svg>
