<?xml version="1.0" encoding="utf-8"?>
<!-- Generator: Adobe Illustrator 16.0.0, SVG Export Plug-In . SVG Version: 6.00 Build 0)  -->
<!DOCTYPE svg PUBLIC "-//W3C//DTD SVG 1.1//EN" "http://www.w3.org/Graphics/SVG/1.1/DTD/svg11.dtd">
<svg version="1.1" id="Layer_1" xmlns="http://www.w3.org/2000/svg" xmlns:xlink="http://www.w3.org/1999/xlink" x="0px" y="0px"
	 width="26.501px" height="26.679px" viewBox="0 0 26.501 26.679" enable-background="new 0 0 26.501 26.679" xml:space="preserve">
<path fill="#B5B8C0" d="M25.371,13.827c0,6.65-5.391,12.041-12.041,12.041S1.289,20.478,1.289,13.827
	c0-6.65,5.391-12.041,12.041-12.041S25.371,7.177,25.371,13.827z"/>
<g transform="translate(0,-1020.3622)">
	<path fill="#FFFFFF" d="M10.943,1024.453c-3.773,0-6.833,3.059-6.833,6.833c0,3.773,3.06,6.832,6.833,6.832l0,0
		c3.772,0,6.832-3.059,6.832-6.832l0,0C17.775,1027.512,14.715,1024.453,10.943,1024.453z M10.943,1025.762
		c3.051,0,5.523,2.473,5.523,5.524c0,3.051-2.473,5.524-5.523,5.524c-3.052,0-5.524-2.474-5.524-5.524
		C5.418,1028.235,7.891,1025.762,10.943,1025.762z"/>
	<path fill="#FFFFFF" d="M16.477,1036.203c-0.194,0.219-0.4,0.424-0.618,0.617l1.524,1.522l-0.48,0.48l3.656,3.655l1.577-1.576
		l-3.656-3.656l-0.48,0.48L16.477,1036.203z"/>
</g>
</svg>
